<svg version="1.1" id="Layer_1" xmlns="http://www.w3.org/2000/svg" xmlns:xlink="http://www.w3.org/1999/xlink" x="0px" y="0px" viewBox="0 0 201.7 41" style="enable-background:new 0 0 201.7 41;" xml:space="preserve">
 <style type="text/css">
  .st0{fill:#00A551;}
	.st1{fill:#FFFFFF;}
	.st2{fill:#F05A22;}
 </style>
 <g>
  <polygon class="st0" points="21.7,28.2 21.7,23.6 0,23.6 0,41 21.7,41 21.7,36.4 7.9,36.4 7.9,34.4 21.7,34.4 21.7,30.2 7.9,30.2 
		7.9,28.2 	">
  </polygon>
  <polygon class="st0" points="24,23.6 32.3,23.6 36.8,34.4 41.3,23.6 49.6,23.6 41.6,41 32,41 	">
  </polygon>
  <path class="st0" d="M65.6,41h8.2l-8.9-17.4h-9.6l-9,17.5h8.2l1.2-2.5h8.5L65.6,41z M58,34.1l2.1-4.2l2.1,4.2H58z">
  </path>
  <path class="st0" d="M96.4,41h8.2l-8.9-17.4h-9.6l-9,17.5h8.2l1.2-2.5h8.5L96.4,41z M88.8,34.1l2.1-4.2l2.1,4.2H88.8z">
  </path>
  <rect x="107.3" y="23.6" class="st0" width="8.1" height="17.4">
  </rect>
  <path class="st0" d="M139.9,33.1c2.1,0,2-2.3,2-2.3v-3c0-3.8-4-4.2-4-4.2l-18.6,0V41h8.1v-6h5.4c0.4,0,0.6,0.1,0.8,0.3
		c0.3,0.3,0.3,0.8,0.3,0.8V41h8.1v-4.9C142,33.3,139.9,33.1,139.9,33.1 M133,30.5h-5.6V28h5.6c0.7,0,1.3,0.6,1.3,1.3
		C134.2,29.9,133.7,30.5,133,30.5">
  </path>
  <path class="st1" d="M161.1,24.6c1.8,5.6,7,9.7,13.2,9.7c7.7,0,13.9-6.2,13.9-13.9c0-7.4-5.8-13.4-13-13.9L161.1,24.6z">
  </path>
  <path class="st1" d="M162.3,25.7c2.1,4.8,6.7,7.9,12,7.9c7.2,0,13.1-5.9,13.1-13.1c0-6.4-4.6-11.9-10.9-12.9L162.3,25.7z">
  </path>
  <path class="st0" d="M179.9,0l-32.1,41h39.6l14.3-41H179.9z M174.3,34.9c-6.1,0-11.4-3.7-13.5-9.4v0l15.1-19.3h0
		c7.2,0.8,12.8,7,12.8,14.3C188.7,28.4,182.3,34.9,174.3,34.9">
  </path>
  <path class="st2" d="M176,6.2l-0.3,0.4l-0.3,0.3L175.3,7l-0.2,0.3c1.6,0.8,3,1.8,4.1,3.1c-0.6,0.4-1.2,0.8-1.8,1.1
		c-0.6-1.4-1.4-2.8-2.3-4.1l-0.3,0.4c0.9,1.2,1.6,2.5,2.2,3.9c-0.8,0.3-1.6,0.4-2.4,0.4V8l-0.5,0.6V12c-0.8,0-1.6-0.2-2.3-0.4
		c0,0-1.1,1.4-1.1,1.4c-0.3,1-0.6,2-0.8,3c-0.4-0.1-0.9-0.2-1.3-0.3l-0.3,0.4c0.5,0.1,1,0.2,1.5,0.3c-0.2,1.2-0.3,2.5-0.4,3.8h-4
		l0-0.6l-0.8,1h0.3c0,1.7,0.3,3.4,0.9,4.9c-1.1,0.4-2.2,0.9-3.3,1.5c-0.4-0.8-0.8-1.6-1.1-2.4l-0.3,0.4l-0.3,0.4
		c2.1,5.6,7.4,9.4,13.5,9.4c7.9,0,14.4-6.5,14.4-14.4C188.7,13.1,183.2,7,176,6.2 M187.8,20.2h-4.1c0-1.7-0.3-3.3-0.9-4.9
		c1.1-0.4,2.2-0.9,3.3-1.5C187.2,15.7,187.8,17.9,187.8,20.2 M169.8,20.7h4.3v3.4c-1.3,0-2.6,0.1-3.9,0.4
		C170,23.2,169.8,22,169.8,20.7 M174.5,16.9c1.3,0,2.6-0.1,3.9-0.4c0.2,1.2,0.3,2.5,0.3,3.7h-4.3V16.9z M178.8,20.7
		c0,1.3-0.1,2.5-0.3,3.7c-1.3-0.2-2.6-0.3-3.9-0.3v-3.4H178.8z M170.3,24.9c1.3-0.2,2.5-0.3,3.8-0.3v4c-0.9,0-1.8,0.2-2.6,0.5
		C170.9,27.7,170.5,26.3,170.3,24.9 M171.1,29.1c-0.7,0.3-1.4,0.7-2,1.1c-1.2-1.3-2.1-2.8-2.7-4.4c1.1-0.4,2.3-0.7,3.4-0.9
		C170.1,26.4,170.5,27.8,171.1,29.1 M174.5,24.5c1.3,0,2.6,0.1,3.8,0.3c-0.3,1.4-0.7,2.8-1.2,4.1c-0.8-0.3-1.7-0.4-2.6-0.5V24.5z
		 M178.8,25c1.2,0.2,2.3,0.5,3.4,0.9c-0.6,1.6-1.6,3.1-2.7,4.4c-0.6-0.5-1.3-0.9-2-1.2C178.1,27.8,178.5,26.4,178.8,25 M178.9,24.5
		c0.2-1.2,0.3-2.5,0.3-3.8h4c0,1.7-0.3,3.2-0.9,4.7C181.3,25,180.1,24.7,178.9,24.5 M179.3,20.2c0-1.3-0.1-2.6-0.4-3.8
		c1.2-0.2,2.4-0.5,3.5-0.9c0.5,1.5,0.8,3.1,0.9,4.7H179.3z M185.9,13.5c-1,0.6-2.1,1-3.2,1.4c-0.7-1.7-1.6-3.2-2.8-4.5
		c0.5-0.4,1-1,1.4-1.5C183.2,10,184.8,11.6,185.9,13.5 M175.6,7c1.9,0.2,3.7,0.8,5.3,1.7c-0.4,0.5-0.8,1-1.3,1.4
		C178.5,8.8,177.1,7.8,175.6,7 M179.5,10.7c1.1,1.3,2.1,2.8,2.7,4.4c-1.1,0.4-2.3,0.7-3.4,0.9c-0.3-1.4-0.7-2.8-1.3-4.2
		C178.3,11.5,178.9,11.1,179.5,10.7 M177.1,12c0.5,1.3,1,2.7,1.2,4.1c-1.3,0.2-2.5,0.3-3.8,0.3v-3.9C175.4,12.4,176.3,12.3,177.1,12
		 M171.5,12c0.8,0.3,1.7,0.5,2.6,0.5v4c-1.3,0-2.6-0.1-3.8-0.3C170.5,14.7,171,13.3,171.5,12 M170.2,16.5c1.3,0.2,2.6,0.3,3.9,0.4
		v3.4h-4.3C169.8,19,170,17.7,170.2,16.5 M165.3,20.7h4c0,1.3,0.1,2.6,0.3,3.8c-1.2,0.2-2.4,0.5-3.5,0.9
		C165.7,24,165.4,22.4,165.3,20.7 M165.9,26c0.7,1.7,1.6,3.2,2.8,4.5c-0.5,0.4-1,0.9-1.4,1.5c-1.9-1.1-3.5-2.7-4.6-4.6
		C163.8,26.9,164.8,26.4,165.9,26 M167.7,32.3c0.4-0.5,0.8-1,1.3-1.4c1.1,1.2,2.5,2.2,4,3C171.1,33.8,169.3,33.2,167.7,32.3
		 M169.4,30.6c0.6-0.4,1.2-0.8,1.9-1.1c0.6,1.5,1.4,2.8,2.4,4.2C172,32.9,170.6,31.9,169.4,30.6 M174.1,33.6c-1-1.3-1.8-2.7-2.4-4.2
		c0.8-0.3,1.6-0.4,2.4-0.4V33.6z M174.5,29c0.8,0,1.6,0.2,2.4,0.4c-0.6,1.5-1.5,2.9-2.4,4.2V29z M177.4,29.6
		c0.7,0.3,1.3,0.6,1.9,1.1c-1.2,1.3-2.6,2.3-4.2,3.1C176,32.4,176.8,31,177.4,29.6 M175.6,33.9c1.5-0.8,2.9-1.8,4-3
		c0.5,0.4,0.9,0.9,1.3,1.4C179.3,33.2,177.5,33.8,175.6,33.9 M181.3,32.1c-0.4-0.6-0.9-1.1-1.4-1.5c1.2-1.3,2.1-2.9,2.8-4.5
		c1.1,0.4,2.2,0.9,3.2,1.4C184.8,29.3,183.2,30.9,181.3,32.1 M186.1,27.1c-1.1-0.6-2.1-1.1-3.3-1.5c0.5-1.5,0.8-3.2,0.9-4.9h4.1
		C187.8,23,187.2,25.2,186.1,27.1">
  </path>
  <polygon class="st1" points="175.7,23.7 179.1,25.3 177.5,21.8 181.9,20.7 181.9,20.2 177.5,19.1 179.2,15.6 175.7,17.2 174.6,11 
		174,11 172.9,17.2 169.5,15.6 171.1,19.1 166.7,20.2 166.7,20.7 171.1,21.8 169.5,25.3 172.9,23.7 174,30 174.6,30 	">
  </polygon>
  <polygon class="st0" points="174.3,11.3 175.5,17.7 178.5,16.3 177.1,19.3 181.7,20.5 177.1,21.6 178.5,24.6 175.5,23.2 
		174.3,29.6 173.2,23.2 170.2,24.6 171.6,21.6 167,20.5 171.6,19.3 170.1,16.3 173.2,17.7 	">
  </polygon>
 </g>
</svg>